<?xml version="1.0" encoding="utf-8"?>
<!-- Generator: Adobe Illustrator 15.1.0, SVG Export Plug-In . SVG Version: 6.00 Build 0)  -->
<!DOCTYPE svg PUBLIC "-//W3C//DTD SVG 1.1//EN" "http://www.w3.org/Graphics/SVG/1.1/DTD/svg11.dtd">
<svg version="1.1" id="Layer_1" xmlns="http://www.w3.org/2000/svg" xmlns:xlink="http://www.w3.org/1999/xlink" x="0px" y="0px"
	 width="21px" height="21px" viewBox="0 0 21 21" enable-background="new 0 0 21 21" xml:space="preserve">
<rect fill="#4387FD" fill-opacity="0" width="21" height="21"/>
<g>
	<path d="M17.175,5c0.565,0,1.026,0.449,1.028,1v8c0,0.553-0.46,1-1.028,1H4.841c-0.569,0-1.028-0.447-1.028-1V6
		c0.002-0.551,0.461-1,1.028-1H17.175 M17.175,4.747H4.841c-0.704,0-1.279,0.562-1.282,1.252V14c0,0.691,0.575,1.254,1.282,1.254
		h12.334c0.707,0,1.282-0.562,1.282-1.254V6C18.454,5.309,17.879,4.747,17.175,4.747L17.175,4.747z"/>
</g>
<path stroke="#000000" stroke-width="0.5734" stroke-miterlimit="10" d="M11,11.196c-0.12,0-0.24-0.037-0.34-0.112L4.237,6.34
	C3.982,6.152,3.929,5.792,4.118,5.539c0.189-0.255,0.546-0.311,0.802-0.12L11,9.911l6.08-4.493c0.259-0.189,0.613-0.134,0.803,0.119
	c0.188,0.256,0.135,0.616-0.118,0.802l-6.425,4.746C11.24,11.159,11.119,11.196,11,11.196z"/>
<path stroke="#000000" stroke-width="0.5927" stroke-miterlimit="10" d="M5.189,14.308c0,0.332-0.27,0.602-0.602,0.602l0,0
	c-0.333,0-0.602-0.27-0.602-0.602V6.085c0-0.333,0.27-0.602,0.602-0.602l0,0c0.332,0,0.602,0.269,0.602,0.602V14.308z"/>
<path stroke="#000000" stroke-width="0.5983" stroke-miterlimit="10" d="M17.995,14.297c0,0.339-0.271,0.613-0.602,0.613l0,0
	c-0.334,0-0.603-0.274-0.603-0.613V5.921c0-0.339,0.269-0.613,0.603-0.613l0,0c0.331,0,0.602,0.274,0.602,0.613V14.297z"/>
<line stroke="#000000" stroke-width="0.25" stroke-miterlimit="10" x1="5.13" y1="6.375" x2="16.885" y2="15"/>
<line stroke="#000000" stroke-width="0.25" stroke-miterlimit="10" x1="16.885" y1="6.375" x2="5.13" y2="15"/>
</svg>
