<?xml version="1.0" encoding="utf-8"?>
<!-- Generator: Adobe Illustrator 15.0.0, SVG Export Plug-In  -->
<!DOCTYPE svg PUBLIC "-//W3C//DTD SVG 1.1//EN" "http://www.w3.org/Graphics/SVG/1.1/DTD/svg11.dtd" [
	<!ENTITY ns_flows "http://ns.adobe.com/Flows/1.0/">
]>
<svg version="1.1"
	 xmlns="http://www.w3.org/2000/svg" xmlns:xlink="http://www.w3.org/1999/xlink" xmlns:a="http://ns.adobe.com/AdobeSVGViewerExtensions/3.0/"
	 x="0px" y="0px" width="21px" height="21px" viewBox="0 0 21 21" overflow="visible" enable-background="new 0 0 21 21"
	 xml:space="preserve">
<defs>
</defs>
<path d="M8,10h4.391C13.279,10,14,9.377,14,8.5C14,7.621,13.279,7,12.391,7H8V5.59C8,4.711,7.39,4,6.5,4S5,4.711,5,5.59v6.008
	c0,0.007,0.002-2.617,0.002,0.018S7.25,16,9,16s3.391,0,3.391,0C13.279,16,14,15.376,14,14.499C14,13.621,13.279,13,12.391,13H9
	c-0.553,0-1-0.447-1-1V10z"/>
<rect opacity="0" fill="#4387FD" width="21" height="21"/>
</svg>
